<svg xmlns="http://www.w3.org/2000/svg" viewBox="0 0 220 48" fill="none">
  <defs>
    <radialGradient id="bgGrad2" cx="70%" cy="30%" r="80%">
      <stop offset="0%" stop-color="#60a5fa" stop-opacity="0.5"></stop>
      <stop offset="100%" stop-color="#1e40af" stop-opacity="0"></stop>
    </radialGradient>
    <radialGradient id="sweepGlow2" cx="50%" cy="50%" r="50%">
      <stop offset="0%" stop-color="white" stop-opacity="0.25"></stop>
      <stop offset="100%" stop-color="white" stop-opacity="0"></stop>
    </radialGradient>
    <clipPath id="badge2">
      <rect width="48" height="48" rx="12"></rect>
    </clipPath>
  </defs>


  <rect width="48" height="48" rx="12" fill="#1d4ed8"></rect>
  <rect width="48" height="48" rx="12" fill="url(#bgGrad2)" opacity="0.6"></rect>

  <g clip-path="url(#badge2)">
    <line x1="0" y1="24" x2="48" y2="24" stroke="white" stroke-width="0.4" stroke-opacity="0.12"></line>
    <line x1="24" y1="0" x2="24" y2="48" stroke="white" stroke-width="0.4" stroke-opacity="0.12"></line>
    <circle cx="24" cy="24" r="17" stroke="white" stroke-width="0.75" stroke-opacity="0.18" fill="none"></circle>
    <circle cx="24" cy="24" r="11.5" stroke="white" stroke-width="0.75" stroke-opacity="0.24" fill="none"></circle>
    <circle cx="24" cy="24" r="6" stroke="white" stroke-width="0.75" stroke-opacity="0.32" fill="none"></circle>
    <path d="M24,24 L39.4,16.8 A17,17 0 0,1 37.9,33.8 Z" fill="white" fill-opacity="0.1"></path>
    <path d="M24,24 L39.4,16.8 A17,17 0 0,1 37.9,33.8 Z" fill="url(#sweepGlow2)"></path>
    <line x1="24" y1="24" x2="37.9" y2="33.8" stroke="white" stroke-width="1.5" stroke-linecap="round" stroke-opacity="0.9"></line>
    <circle cx="37.8" cy="26.4" r="2.2" fill="white" fill-opacity="0.95"></circle>
    <circle cx="37.8" cy="26.4" r="4" fill="white" fill-opacity="0.15"></circle>
    <circle cx="33.7" cy="21.4" r="1.5" fill="white" fill-opacity="0.7"></circle>
    <circle cx="30.1" cy="27.5" r="1.1" fill="white" fill-opacity="0.5"></circle>
    <circle cx="24" cy="24" r="2" fill="white" fill-opacity="0.9"></circle>
    <circle cx="24" cy="24" r="3.5" fill="white" fill-opacity="0.15"></circle>
  </g>


  <text x="60" y="21" font-family="Inter, system-ui, sans-serif" font-size="15" font-weight="700" fill="#1e293b" letter-spacing="-0.3">Flip</text>
  <text x="88" y="21" font-family="Inter, system-ui, sans-serif" font-size="15" font-weight="700" fill="#60a5fa" letter-spacing="-0.3">Radar</text>
  <text x="60" y="36" font-family="Inter, system-ui, sans-serif" font-size="9.5" font-weight="500" fill="#64748b" letter-spacing="0.5">PRODUCT RESEARCH</text>
</svg>